<svg x="0" y="0" width="300" height="300" version="1.1" xmlns="http://www.w3.org/2000/svg" xmlns:xlink="http://www.w3.org/1999/xlink"><g transform="translate(30,159.44729) scale(0.2407,0.2407)" data-paper-data="{&quot;description&quot;:&quot;Logo for schemaconvertor\n========================\n\nThis logo was generated by MarkMaker and is composed of elements designed by others.\n\nThe font is Martel Sans Bold designed by Dan Reynolds and Mathieu Réguer and released under the OFL license via Google Fonts: https://www.google.com/fonts/specimen/Martel Sans. The font includes this copyright statement: Copyright (c) 2014 Dan Reynolds. Copyright (c) 2014 Mathieu Reguer.\n\nMarkMaker uses semantic data from the Princeton University WordNet database http://wordnet.princeton.edu and font descriptions from Google Fonts https://www.google.com/fonts.\n\nThis design is inspired by designs that past users of MarkMaker have liked. As a result, it may be visually similar to past or future designs generated by the system. There is no guarantee that it is unique, original, or suitable in any way for use as a logo.\n\n&quot;}" fill="none" stroke="none" stroke-width="none" stroke-linecap="butt" stroke-linejoin="miter" stroke-miterlimit="10" stroke-dasharray="" stroke-dashoffset="0" font-family="sans-serif" font-weight="normal" font-size="12" text-anchor="start" mix-blend-mode="normal"><path transform="translate(159.92073,-6.54167) scale(0.83333,0.83333)" d="M914.42,19.43l0,-117.36l90.20873,0l0,117.36z" fill="none" stroke="#660e09" stroke-width="2.1"></path><g data-paper-data="{&quot;elementType&quot;:&quot;logo&quot;}" fill="#660e09" stroke-width="1"><g data-paper-data="{&quot;elementType&quot;:&quot;text&quot;}"><g transform="translate(-25,-100)" data-paper-data="{&quot;baseline&quot;:80,&quot;elementType&quot;:&quot;row&quot;}"><g transform="translate(20.6,0)" data-paper-data="{&quot;baselineProportion&quot;:0.9815950920245399,&quot;fontSize&quot;:100,&quot;baseline&quot;:80,&quot;elementType&quot;:&quot;word&quot;}"><path d="M24,101.5c-7.53333,0 -14.06667,-1.46667 -19.6,-4.4l3,-9.2c5.26667,2.6 10.73333,3.9 16.4,3.9c3.26667,0 5.88333,-0.58333 7.85,-1.75c1.96667,-1.16667 2.95,-2.91667 2.95,-5.25c0,-1.93333 -0.91667,-3.46667 -2.75,-4.6c-1.83333,-1.13333 -4.71667,-2.4 -8.65,-3.8c-3.66667,-1.33333 -6.65,-2.56667 -8.95,-3.7c-2.3,-1.13333 -4.26667,-2.71667 -5.9,-4.75c-1.63333,-2.03333 -2.45,-4.55 -2.45,-7.55c0,-5.53333 2,-9.75 6,-12.65c4,-2.9 9.4,-4.35 16.2,-4.35c3.13333,0 6.21667,0.35 9.25,1.05c3.03333,0.7 5.71667,1.71667 8.05,3.05l-3,9.2c-4.66667,-2.4 -9.33333,-3.6 -14,-3.6c-2.93333,0 -5.25,0.48333 -6.95,1.45c-1.7,0.96667 -2.55,2.45 -2.55,4.45c0,1.93333 0.86667,3.41667 2.6,4.45c1.73333,1.03333 4.56667,2.25 8.5,3.65c3.73333,1.26667 6.75,2.48333 9.05,3.65c2.3,1.16667 4.3,2.83333 6,5c1.7,2.16667 2.55,4.91667 2.55,8.25c0,5.46667 -2.05,9.75 -6.15,12.85c-4.1,3.1 -9.91667,4.65 -17.45,4.65z" data-paper-data="{&quot;elementType&quot;:&quot;letter&quot;,&quot;baseline&quot;:56.6,&quot;baselineProportion&quot;:0.9741824440619621,&quot;fontSize&quot;:100}"></path><path d="M84.1,101.5c-6.13333,0 -11.28333,-1.28333 -15.45,-3.85c-4.16667,-2.56667 -7.26667,-6.03333 -9.3,-10.4c-2.03333,-4.36667 -3.05,-9.28333 -3.05,-14.75c0,-5.33333 1.03333,-10.2 3.1,-14.6c2.06667,-4.4 5.28333,-7.91667 9.65,-10.55c4.36667,-2.63333 9.81667,-3.95 16.35,-3.95c2.93333,0 5.9,0.43333 8.9,1.3c3,0.86667 5.43333,2 7.3,3.4l-3.2,9.2c-4.06667,-2.8 -8.4,-4.2 -13,-4.2c-5,0 -8.86667,1.71667 -11.6,5.15c-2.73333,3.43333 -4.1,8.15 -4.1,14.15c0,6.06667 1.25,10.81667 3.75,14.25c2.5,3.43333 6.05,5.15 10.65,5.15c2.93333,0 5.58333,-0.53333 7.95,-1.6c2.36667,-1.06667 4.81667,-2.6 7.35,-4.6l4.1,8.3c-2.33333,2.2 -5.16667,4.01667 -8.5,5.45c-3.33333,1.43333 -6.96667,2.15 -10.9,2.15z" data-paper-data="{&quot;elementType&quot;:&quot;letter&quot;,&quot;baseline&quot;:56.6,&quot;baselineProportion&quot;:0.9741824440619621,&quot;fontSize&quot;:100}"></path><path d="M144.6,43.4c6.66667,0 11.26667,1.75 13.8,5.25c2.53333,3.5 3.8,8.55 3.8,15.15l0,36.2l-13.2,0l0,-34.7c0,-4.4 -0.61667,-7.5 -1.85,-9.3c-1.23333,-1.8 -3.41667,-2.7 -6.55,-2.7c-4.2,0 -8.56667,1.7 -13.1,5.1l0,41.6l-13.2,0l0,-80l13.2,0l0,29c5.86667,-3.73333 11.56667,-5.6 17.1,-5.6z" data-paper-data="{&quot;elementType&quot;:&quot;letter&quot;,&quot;baseline&quot;:80,&quot;baselineProportion&quot;:1,&quot;fontSize&quot;:100}"></path><path d="M202.5,91.8c3.2,0 6.15,-0.63333 8.85,-1.9c2.7,-1.26667 5.48333,-3.1 8.35,-5.5l4,8.3c-3.2,2.93333 -6.48333,5.13333 -9.85,6.6c-3.36667,1.46667 -7.18333,2.2 -11.45,2.2c-6.13333,0 -11.26667,-1.28333 -15.4,-3.85c-4.13333,-2.56667 -7.21667,-6.03333 -9.25,-10.4c-2.03333,-4.36667 -3.05,-9.28333 -3.05,-14.75c0,-5.6 1.03333,-10.58333 3.1,-14.95c2.06667,-4.36667 5.16667,-7.81667 9.3,-10.35c4.13333,-2.53333 9.23333,-3.8 15.3,-3.8c6.86667,0 12.25,1.91667 16.15,5.75c3.9,3.83333 5.88333,9.21667 5.95,16.15c0,2.2 -0.36667,4.66667 -1.1,7.4l-35.7,0c0.06667,6.13333 1.3,10.85 3.7,14.15c2.4,3.3 6.1,4.95 11.1,4.95 M201.8,52.4c-3.53333,0 -6.4,1.01667 -8.6,3.05c-2.2,2.03333 -3.73333,4.81667 -4.6,8.35l23,0l0,-1.2c0,-3.26667 -0.91667,-5.78333 -2.75,-7.55c-1.83333,-1.76667 -4.18333,-2.65 -7.05,-2.65z" data-paper-data="{&quot;elementType&quot;:&quot;letter&quot;,&quot;baseline&quot;:56.6,&quot;baselineProportion&quot;:0.9741824440619621,&quot;fontSize&quot;:100}"></path><path d="M301.5,43.4c6.53333,0 11.03333,1.75 13.5,5.25c2.46667,3.5 3.7,8.55 3.7,15.15l0,36.2l-13.1,0l0,-34.7c0,-4.4 -0.58333,-7.5 -1.75,-9.3c-1.16667,-1.8 -3.28333,-2.7 -6.35,-2.7c-3.86667,0 -8.16667,1.76667 -12.9,5.3l-0.2,-0.5c0.2,1.8 0.3,3.7 0.3,5.7l0,36.2l-13.1,0l0,-34.7c0,-4.4 -0.58333,-7.5 -1.75,-9.3c-1.16667,-1.8 -3.28333,-2.7 -6.35,-2.7c-3.93333,0 -8.16667,1.73333 -12.7,5.2l0,41.5l-13.2,0l0,-55.1l9.9,0l1.6,5.1c6.46667,-4.4 12.6,-6.6 18.4,-6.6c3.8,0 6.88333,0.61667 9.25,1.85c2.36667,1.23333 4.18333,3.01667 5.45,5.35c6.86667,-4.8 13.3,-7.2 19.3,-7.2z" data-paper-data="{&quot;elementType&quot;:&quot;letter&quot;,&quot;baseline&quot;:56.6,&quot;baselineProportion&quot;:1,&quot;fontSize&quot;:100}"></path><path d="M384.4,99.6c-2.93333,0.86667 -5.96667,1.33333 -9.1,1.4c-2.93333,0 -5.38333,-0.5 -7.35,-1.5c-1.96667,-1 -3.35,-2.7 -4.15,-5.1c-2.93333,2.2 -5.8,3.86667 -8.6,5c-2.8,1.13333 -5.76667,1.7 -8.9,1.7c-4.4,0 -8,-1.28333 -10.8,-3.85c-2.8,-2.56667 -4.2,-5.75 -4.2,-9.55c0,-3.8 1,-6.9 3,-9.3c2,-2.4 4.78333,-4.33333 8.35,-5.8c3.56667,-1.46667 8.61667,-3.13333 15.15,-5l5.2,-1.5l0,-2.2c0,-3.4 -0.71667,-6.01667 -2.15,-7.85c-1.43333,-1.83333 -3.61667,-2.75 -6.55,-2.75c-3.06667,0 -6.08333,0.63333 -9.05,1.9c-2.96667,1.26667 -6.35,3.5 -10.15,6.7l-3.5,-8.7c8.33333,-6.53333 17.13333,-9.8 26.4,-9.8c6.06667,0 10.61667,1.61667 13.65,4.85c3.03333,3.23333 4.55,8.68333 4.55,16.35l0,22.6c0,1.46667 0.26667,2.51667 0.8,3.15c0.53333,0.63333 1.43333,0.95 2.7,0.95c1.26667,0 2.6,-0.26667 4,-0.8l0.7,9.1 M344.5,86.2c0,3.46667 1.93333,5.2 5.8,5.2c1.93333,0 3.9,-0.43333 5.9,-1.3c2,-0.86667 4.26667,-2.16667 6.8,-3.9l0,-12.4l-3.6,1.2c-5.66667,1.86667 -9.56667,3.6 -11.7,5.2c-2.13333,1.6 -3.2,3.6 -3.2,6z" data-paper-data="{&quot;elementType&quot;:&quot;letter&quot;,&quot;baseline&quot;:56.6,&quot;baselineProportion&quot;:0.9809358752166378,&quot;fontSize&quot;:100}"></path><path d="M417.7,101.5c-6.13333,0 -11.28333,-1.28333 -15.45,-3.85c-4.16667,-2.56667 -7.26667,-6.03333 -9.3,-10.4c-2.03333,-4.36667 -3.05,-9.28333 -3.05,-14.75c0,-5.33333 1.03333,-10.2 3.1,-14.6c2.06667,-4.4 5.28333,-7.91667 9.65,-10.55c4.36667,-2.63333 9.81667,-3.95 16.35,-3.95c2.93333,0 5.9,0.43333 8.9,1.3c3,0.86667 5.43333,2 7.3,3.4l-3.2,9.2c-4.06667,-2.8 -8.4,-4.2 -13,-4.2c-5,0 -8.86667,1.71667 -11.6,5.15c-2.73333,3.43333 -4.1,8.15 -4.1,14.15c0,6.06667 1.25,10.81667 3.75,14.25c2.5,3.43333 6.05,5.15 10.65,5.15c2.93333,0 5.58333,-0.53333 7.95,-1.6c2.36667,-1.06667 4.81667,-2.6 7.35,-4.6l4.1,8.3c-2.33333,2.2 -5.16667,4.01667 -8.5,5.45c-3.33333,1.43333 -6.96667,2.15 -10.9,2.15z" data-paper-data="{&quot;elementType&quot;:&quot;letter&quot;,&quot;baseline&quot;:56.6,&quot;baselineProportion&quot;:0.9741824440619621,&quot;fontSize&quot;:100}"></path><path d="M471.4,101.5c-6,0 -11.1,-1.28333 -15.3,-3.85c-4.2,-2.56667 -7.33333,-6.03333 -9.4,-10.4c-2.06667,-4.36667 -3.1,-9.28333 -3.1,-14.75c0,-5.6 1.03333,-10.58333 3.1,-14.95c2.06667,-4.36667 5.18333,-7.81667 9.35,-10.35c4.16667,-2.53333 9.28333,-3.8 15.35,-3.8c6,0 11.08333,1.31667 15.25,3.95c4.16667,2.63333 7.3,6.15 9.4,10.55c2.1,4.4 3.15,9.2 3.15,14.4c0,5.26667 -1.05,10.11667 -3.15,14.55c-2.1,4.43333 -5.23333,7.98333 -9.4,10.65c-4.16667,2.66667 -9.25,4 -15.25,4 M471.3,91.8c4.86667,0 8.48333,-1.68333 10.85,-5.05c2.36667,-3.36667 3.55,-8.15 3.55,-14.35c0,-6.13333 -1.2,-10.88333 -3.6,-14.25c-2.4,-3.36667 -6,-5.05 -10.8,-5.05c-4.8,0 -8.4,1.68333 -10.8,5.05c-2.4,3.36667 -3.6,8.11667 -3.6,14.25c0,6.2 1.18333,10.98333 3.55,14.35c2.36667,3.36667 5.98333,5.05 10.85,5.05z" data-paper-data="{&quot;elementType&quot;:&quot;letter&quot;,&quot;baseline&quot;:56.6,&quot;baselineProportion&quot;:0.9741824440619621,&quot;fontSize&quot;:100}"></path><path d="M542.5,43.4c6.66667,0 11.25,1.75 13.75,5.25c2.5,3.5 3.75,8.55 3.75,15.15l0,36.2l-13.1,0l0,-34.7c0,-4.4 -0.61667,-7.5 -1.85,-9.3c-1.23333,-1.8 -3.41667,-2.7 -6.55,-2.7c-4.2,0 -8.56667,1.7 -13.1,5.1l0,41.6l-13.2,0l0,-55.1l9.9,0l1.6,5.1c6.4,-4.4 12.66667,-6.6 18.8,-6.6z" data-paper-data="{&quot;elementType&quot;:&quot;letter&quot;,&quot;baseline&quot;:56.6,&quot;baselineProportion&quot;:1,&quot;fontSize&quot;:100}"></path><path d="M624.7,44.9l-21.3,55.7l-12.7,0l-21.3,-55.7l13.5,0l14.3,41.9l14.3,-41.9l13.2,0z" data-paper-data="{&quot;elementType&quot;:&quot;letter&quot;,&quot;baseline&quot;:55.1,&quot;baselineProportion&quot;:0.9892280071813286,&quot;fontSize&quot;:100}"></path><path d="M658,91.8c3.2,0 6.15,-0.63333 8.85,-1.9c2.7,-1.26667 5.48333,-3.1 8.35,-5.5l4,8.3c-3.2,2.93333 -6.48333,5.13333 -9.85,6.6c-3.36667,1.46667 -7.18333,2.2 -11.45,2.2c-6.13333,0 -11.26667,-1.28333 -15.4,-3.85c-4.13333,-2.56667 -7.21667,-6.03333 -9.25,-10.4c-2.03333,-4.36667 -3.05,-9.28333 -3.05,-14.75c0,-5.6 1.03333,-10.58333 3.1,-14.95c2.06667,-4.36667 5.16667,-7.81667 9.3,-10.35c4.13333,-2.53333 9.23333,-3.8 15.3,-3.8c6.86667,0 12.25,1.91667 16.15,5.75c3.9,3.83333 5.88333,9.21667 5.95,16.15c0,2.2 -0.36667,4.66667 -1.1,7.4l-35.7,0c0.06667,6.13333 1.3,10.85 3.7,14.15c2.4,3.3 6.1,4.95 11.1,4.95 M657.3,52.4c-3.53333,0 -6.4,1.01667 -8.6,3.05c-2.2,2.03333 -3.73333,4.81667 -4.6,8.35l23,0l0,-1.2c0,-3.26667 -0.91667,-5.78333 -2.75,-7.55c-1.83333,-1.76667 -4.18333,-2.65 -7.05,-2.65z" data-paper-data="{&quot;elementType&quot;:&quot;letter&quot;,&quot;baseline&quot;:56.6,&quot;baselineProportion&quot;:0.9741824440619621,&quot;fontSize&quot;:100}"></path><path d="M725,56c-3.26667,0 -6.35,0.35 -9.25,1.05c-2.9,0.7 -6.05,2.05 -9.45,4.05l0,38.9l-13.2,0l0,-55.1l9.9,0l2.2,6.8c3.33333,-3 6.6,-5.11667 9.8,-6.35c3.2,-1.23333 6.53333,-1.85 10,-1.85l0,12.5z" data-paper-data="{&quot;elementType&quot;:&quot;letter&quot;,&quot;baseline&quot;:56.5,&quot;baselineProportion&quot;:1,&quot;fontSize&quot;:100}"></path><path d="M770.9,97.1c-1.93333,1.26667 -4.05,2.23333 -6.35,2.9c-2.3,0.66667 -4.58333,1 -6.85,1c-6.33333,0 -11.06667,-1.55 -14.2,-4.65c-3.13333,-3.1 -4.7,-7.55 -4.7,-13.35l0,-28.6l-8.5,0l0,-5.6l9.9,-3.4l3.8,-14.1l8,0l0,13.6l16,0l0,9.5l-16,0l0,25.8c0,3.93333 0.61667,6.75 1.85,8.45c1.23333,1.7 3.15,2.55 5.75,2.55c2.8,0 5.86667,-0.83333 9.2,-2.5l2.1,8.4z" data-paper-data="{&quot;elementType&quot;:&quot;letter&quot;,&quot;baseline&quot;:68.7,&quot;baselineProportion&quot;:0.9856527977044476,&quot;fontSize&quot;:100}"></path><path d="M805.9,101.5c-6,0 -11.1,-1.28333 -15.3,-3.85c-4.2,-2.56667 -7.33333,-6.03333 -9.4,-10.4c-2.06667,-4.36667 -3.1,-9.28333 -3.1,-14.75c0,-5.6 1.03333,-10.58333 3.1,-14.95c2.06667,-4.36667 5.18333,-7.81667 9.35,-10.35c4.16667,-2.53333 9.28333,-3.8 15.35,-3.8c6,0 11.08333,1.31667 15.25,3.95c4.16667,2.63333 7.3,6.15 9.4,10.55c2.1,4.4 3.15,9.2 3.15,14.4c0,5.26667 -1.05,10.11667 -3.15,14.55c-2.1,4.43333 -5.23333,7.98333 -9.4,10.65c-4.16667,2.66667 -9.25,4 -15.25,4 M805.8,91.8c4.86667,0 8.48333,-1.68333 10.85,-5.05c2.36667,-3.36667 3.55,-8.15 3.55,-14.35c0,-6.13333 -1.2,-10.88333 -3.6,-14.25c-2.4,-3.36667 -6,-5.05 -10.8,-5.05c-4.8,0 -8.4,1.68333 -10.8,5.05c-2.4,3.36667 -3.6,8.11667 -3.6,14.25c0,6.2 1.18333,10.98333 3.55,14.35c2.36667,3.36667 5.98333,5.05 10.85,5.05z" data-paper-data="{&quot;elementType&quot;:&quot;letter&quot;,&quot;baseline&quot;:56.6,&quot;baselineProportion&quot;:0.9741824440619621,&quot;fontSize&quot;:100}"></path><path d="M878.6,56c-3.26667,0 -6.35,0.35 -9.25,1.05c-2.9,0.7 -6.05,2.05 -9.45,4.05l0,38.9l-13.2,0l0,-55.1l9.9,0l2.2,6.8c3.33333,-3 6.6,-5.11667 9.8,-6.35c3.2,-1.23333 6.53333,-1.85 10,-1.85l0,12.5z" data-paper-data="{&quot;elementType&quot;:&quot;letter&quot;,&quot;baseline&quot;:56.5,&quot;baselineProportion&quot;:1,&quot;fontSize&quot;:100}"></path></g></g></g></g><g transform="translate(934.5064,-94.18977) scale(0.83116,0.83116)" data-paper-data="{&quot;elementType&quot;:&quot;emblem&quot;}" fill="#660e09" stroke-width="1"><g data-paper-data="{&quot;baselineProportion&quot;:0.980169971671388,&quot;fontSize&quot;:100,&quot;baseline&quot;:69.2,&quot;elementType&quot;:&quot;word&quot;}"><path d="M28.1,101.4c-9.46667,0 -17.3,-1.86667 -23.5,-5.6l3.3,-9.5c3.33333,1.73333 6.6,3.01667 9.8,3.85c3.2,0.83333 6.6,1.25 10.2,1.25c4.06667,0 7.46667,-0.83333 10.2,-2.5c2.73333,-1.66667 4.1,-4.06667 4.1,-7.2c0,-1.93333 -0.65,-3.58333 -1.95,-4.95c-1.3,-1.36667 -2.91667,-2.5 -4.85,-3.4c-1.93333,-0.9 -4.6,-1.95 -8,-3.15c-4.4,-1.6 -7.95,-3.08333 -10.65,-4.45c-2.7,-1.36667 -5.01667,-3.26667 -6.95,-5.7c-1.93333,-2.43333 -2.9,-5.51667 -2.9,-9.25c0,-6.33333 2.35,-11.25 7.05,-14.75c4.7,-3.5 10.91667,-5.25 18.65,-5.25c7.73333,0 14.53333,1.8 20.4,5.4l-3.3,9.4c-5.53333,-3.2 -11.1,-4.8 -16.7,-4.8c-3.73333,0 -6.8,0.8 -9.2,2.4c-2.4,1.6 -3.6,3.86667 -3.6,6.8c0,1.73333 0.61667,3.23333 1.85,4.5c1.23333,1.26667 2.76667,2.31667 4.6,3.15c1.83333,0.83333 4.41667,1.88333 7.75,3.15c4.53333,1.66667 8.2,3.21667 11,4.65c2.8,1.43333 5.2,3.4 7.2,5.9c2,2.5 3,5.68333 3,9.55c0,6.4 -2.43333,11.41667 -7.3,15.05c-4.86667,3.63333 -11.6,5.45 -20.2,5.45z" data-paper-data="{&quot;elementType&quot;:&quot;letter&quot;,&quot;baseline&quot;:69.2,&quot;baselineProportion&quot;:0.980169971671388,&quot;fontSize&quot;:100}"></path></g></g></g></svg>